<svg width="64" height="64" viewBox="0 0 64 64" fill="none" xmlns="http://www.w3.org/2000/svg">
  <g stroke="currentColor" stroke-width="1.8" stroke-linecap="round" stroke-linejoin="round">
    <path d="M32 54C30.6 52.9 29.1 51.8 27.7 50.8C15.8 42.2 9 35.6 9 24.5C9 16.4 15.2 10 23.2 10C27.8 10 31 12.1 32.9 15.4C34.8 12.1 38 10 42.6 10C50.6 10 56.8 16.4 56.8 24.5C56.8 35.6 50 42.2 38.1 50.8C36.7 51.8 35.4 52.9 34 54"/>
    <path d="M28.5 24.4C27.2 25.4 26.4 27 26.4 28.8C26.4 31.4 28.4 33.6 31 33.8C30 36.6 27.4 38.6 24.4 38.6C20.6 38.6 17.6 35.5 17.6 31.7C17.6 28.2 20.2 25.4 23.5 24.9"/>
    <path d="M38.2 22.8C41.7 22.8 44.6 25.6 44.6 29.1C44.6 31.3 43.5 33.3 41.9 34.5C42.5 35.4 42.8 36.5 42.8 37.7C42.8 40.9 40.2 43.5 37 43.5C34.9 43.5 33.2 42.4 32.2 40.8C31.6 41.1 31 41.2 30.3 41.2C27.8 41.2 25.7 39.1 25.7 36.6C25.7 34.1 27.8 32 30.3 32H36"/>
    <path d="M36.2 27.2C37.6 27.2 38.7 28.3 38.7 29.7C38.7 30.5 38.3 31.3 37.7 31.8"/>
  </g>
</svg>
