<svg width="64" height="64" viewBox="0 0 64 64" fill="none" xmlns="http://www.w3.org/2000/svg">
  <g stroke="currentColor" stroke-width="1.8" stroke-linecap="round" stroke-linejoin="round">
    <path d="M32 11.5C35.8 16 38 21.2 38 26.7C38 31.8 35.8 36.7 32 40.8C28.2 36.7 26 31.8 26 26.7C26 21.2 28.2 16 32 11.5Z"/>
    <path d="M22.6 17.8C27.1 20 30.3 24 31.4 28.8C32.5 33.3 31.7 38.1 29.3 42.2C24.4 41.1 20.2 38.7 17.1 35.1C14 31.5 12.1 26.9 11.8 22.1C15.6 20.1 19.2 18.6 22.6 17.8Z"/>
    <path d="M41.4 17.8C36.9 20 33.7 24 32.6 28.8C31.5 33.3 32.3 38.1 34.7 42.2C39.6 41.1 43.8 38.7 46.9 35.1C50 31.5 51.9 26.9 52.2 22.1C48.4 20.1 44.8 18.6 41.4 17.8Z"/>
    <path d="M13.4 28.8C17.7 29 21.8 30.6 25.1 33.2C28.3 35.7 30.4 39.1 31.1 43C26.7 44.9 21.8 45.4 17.1 44.4C12.7 43.5 8.9 41.2 6.5 37.7C7.9 34.2 10.3 31.1 13.4 28.8Z"/>
    <path d="M50.6 28.8C46.3 29 42.2 30.6 38.9 33.2C35.7 35.7 33.6 39.1 32.9 43C37.3 44.9 42.2 45.4 46.9 44.4C51.3 43.5 55.1 41.2 57.5 37.7C56.1 34.2 53.7 31.1 50.6 28.8Z"/>
    <path d="M20.8 44.6C23.5 48.1 27.4 50.5 32 51.5C36.6 50.5 40.5 48.1 43.2 44.6"/>
    <path d="M24.2 48.6C26.4 49.9 29.1 50.7 32 51C34.9 50.7 37.6 49.9 39.8 48.6"/>
    <path d="M17.5 54C20.2 52.8 22.9 52.2 25.6 52.2C28.5 52.2 30.3 53.6 32 53.6C33.7 53.6 35.5 52.2 38.4 52.2C41.1 52.2 43.8 52.8 46.5 54"/>
    <path d="M21 57C23 56.2 25.1 55.8 27.3 55.8C29.2 55.8 30.7 56.8 32 56.8C33.3 56.8 34.8 55.8 36.7 55.8C38.9 55.8 41 56.2 43 57"/>
  </g>
</svg>
