<svg xmlns="http://www.w3.org/2000/svg" width="941" height="1672" viewBox="0 0 941 1672">
<defs>
  <linearGradient id="bg" x1="0" x2="1" y1="0" y2="1"><stop offset="0" stop-color="#FFF7E8"/><stop offset=".42" stop-color="#FBFCF0"/><stop offset="1" stop-color="#D8EFA8"/></linearGradient>
  <linearGradient id="green" x1="0" x2="1" y1="0" y2="1"><stop offset="0" stop-color="#93D36A"/><stop offset="1" stop-color="#4B993E"/></linearGradient>
  <filter id="shadow" x="-20%" y="-20%" width="140%" height="150%"><feDropShadow dx="0" dy="16" stdDeviation="22" flood-color="#6D9F50" flood-opacity=".13"/></filter>
  <filter id="shadowSoft" x="-25%" y="-25%" width="150%" height="150%"><feDropShadow dx="0" dy="10" stdDeviation="14" flood-color="#6D9F50" flood-opacity=".12"/></filter>
</defs>
<rect width="941" height="1672" fill="url(#bg)"/>
<circle cx="-20" cy="84" r="172" fill="#fff" fill-opacity=".5"/><circle cx="810" cy="478" r="190" fill="#DFF2C7" fill-opacity=".62"/><circle cx="876" cy="1478" r="230" fill="#A7D46C" fill-opacity=".23"/><path d="M0 1498 C158 1426 316 1464 474 1520 C640 1580 794 1576 941 1494 L941 1672 L0 1672 Z" fill="#CFEA98" fill-opacity=".44"/>
<path d="M636 20 C728 58 812 92 944 164" fill="none" stroke="#6D6936" stroke-width="4" stroke-opacity=".35"/><ellipse cx="638" cy="16" rx="48" ry="22" fill="#BBD976" fill-opacity="0.8" transform="rotate(-24 638 16)"/><ellipse cx="690" cy="22" rx="52" ry="24" fill="#97CB5C" fill-opacity="0.8" transform="rotate(18 690 22)"/><ellipse cx="746" cy="20" rx="62" ry="27" fill="#6EAF43" fill-opacity="0.8" transform="rotate(-15 746 20)"/><ellipse cx="808" cy="44" rx="66" ry="29" fill="#5A9C39" fill-opacity="0.8" transform="rotate(20 808 44)"/><ellipse cx="872" cy="82" rx="64" ry="28" fill="#7EBD4E" fill-opacity="0.8" transform="rotate(-18 872 82)"/><ellipse cx="922" cy="128" rx="58" ry="25" fill="#649B3F" fill-opacity="0.8" transform="rotate(18 922 128)"/><ellipse cx="706" cy="88" rx="52" ry="23" fill="#A4CF67" fill-opacity="0.8" transform="rotate(-18 706 88)"/><ellipse cx="768" cy="94" rx="58" ry="24" fill="#79B94C" fill-opacity="0.8" transform="rotate(14 768 94)"/><ellipse cx="834" cy="134" rx="62" ry="27" fill="#4F8F38" fill-opacity="0.8" transform="rotate(-20 834 134)"/><ellipse cx="894" cy="172" rx="58" ry="25" fill="#7DBA4C" fill-opacity="0.8" transform="rotate(18 894 172)"/>
<g transform="translate(66 66)"><rect width="46" height="46" rx="11" fill="url(#green)"/><path d="M14 18 C14 9 25 9 23 19 C29 7 40 13 35 25 C32 33 23 39 23 40 C22 38 14 31 14 18 Z" fill="none" stroke="#fff" stroke-width="4" stroke-linecap="round" stroke-linejoin="round"/><path d="M12 34 C21 27 31 27 38 34" fill="none" stroke="#fff" stroke-width="3.5" stroke-linecap="round"/></g>
<text x="130" y="97" font-size="31" font-weight="760" fill="#418D3C" font-family="'PingFang SC','Noto Sans CJK SC','Microsoft YaHei','Hiragino Sans GB',Arial,sans-serif">心理健康评测</text>
<text x="66" y="206" font-size="78" font-weight="780" fill="#4A963C" font-family="'Kaiti SC','STKaiti','KaiTi','Noto Serif CJK SC','Songti SC',serif">了解自己</text><text x="66" y="316" font-size="78" font-weight="780" fill="#4A963C" font-family="'Kaiti SC','STKaiti','KaiTi','Noto Serif CJK SC','Songti SC',serif">关爱心灵</text><path d="M462 274 C466 222 520 218 526 262 C560 232 594 270 550 308 C522 332 492 328 462 274 Z" fill="none" stroke="#F1D164" stroke-width="8" stroke-linecap="round" stroke-linejoin="round"/><text x="66" y="406" font-size="29" font-weight="520" fill="#5C675E" font-family="'PingFang SC','Noto Sans CJK SC','Microsoft YaHei','Hiragino Sans GB',Arial,sans-serif">看见自己的消耗，是恢复的第一步</text>
<g filter="url(#shadowSoft)"><circle cx="626" cy="232" r="58" fill="#fff" fill-opacity=".78"/><circle cx="626" cy="231" r="45" fill="#F8D1B4" fill-opacity=".78"/><path d="M588 242 C604 188 666 188 680 236 C660 218 636 216 614 232 C606 238 596 242 588 242 Z" fill="#75452E" fill-opacity=".86"/><circle cx="626" cy="238" r="24" fill="#FFE5CD"/><path d="M612 250 C626 261 646 256 654 244" fill="none" stroke="#D77D62" stroke-width="4" stroke-linecap="round"/></g><text x="710" y="224" font-size="28" font-weight="760" fill="#2F7A31" font-family="'PingFang SC','Noto Sans CJK SC','Microsoft YaHei','Hiragino Sans GB',Arial,sans-serif">@ 心灵探索者</text><text x="710" y="280" font-size="26" fill="#9A9F9B" font-family="'PingFang SC','Noto Sans CJK SC','Microsoft YaHei','Hiragino Sans GB',Arial,sans-serif">评测完成于</text><text x="710" y="328" font-size="30" font-weight="620" fill="#9A9F9B" font-family="'PingFang SC','Noto Sans CJK SC','Microsoft YaHei','Hiragino Sans GB',Arial,sans-serif">2026.05.08</text>
<g filter="url(#shadow)"><rect x="568" y="330" width="323" height="184" rx="28" fill="#fff" fill-opacity=".74"/><text x="602" y="407" font-size="28" fill="#7C827E" font-family="'PingFang SC','Noto Sans CJK SC','Microsoft YaHei','Hiragino Sans GB',Arial,sans-serif">总分</text><text x="656" y="424" font-size="94" font-weight="820" fill="#76BD50" font-family="'PingFang SC','Noto Sans CJK SC','Microsoft YaHei','Hiragino Sans GB',Arial,sans-serif">64</text><text x="774" y="424" font-size="30" fill="#7C827E" font-family="'PingFang SC','Noto Sans CJK SC','Microsoft YaHei','Hiragino Sans GB',Arial,sans-serif">/100</text><rect x="650" y="450" width="164" height="50" rx="25" fill="url(#green)"/><text x="732" y="484" text-anchor="middle" font-size="25" font-weight="760" fill="#fff" font-family="'PingFang SC','Noto Sans CJK SC','Microsoft YaHei','Hiragino Sans GB',Arial,sans-serif">建议支持</text></g>
<g filter="url(#shadow)"><rect x="50" y="492" width="506" height="538" rx="28" fill="#fff" fill-opacity=".66"/><path d="M50 470 H334 L318 518 H50 Z" fill="url(#green)"/><text x="70" y="507" font-size="28" font-weight="760" fill="#fff" font-family="'PingFang SC','Noto Sans CJK SC','Microsoft YaHei','Hiragino Sans GB',Arial,sans-serif">· 你的心理健康维度 ·</text><polygon points="303,632 438.05002531391176,730.1195867987575 386.4655058255312,888.8804132012425 219.53449417446882,888.8804132012425 167.94997468608818,730.1195867987575" fill="#95CD66" fill-opacity=".06" stroke="#A4D489" stroke-opacity=".50"/><polygon points="303,671.76 400.2360182260165,742.4061024951054 363.09516419438245,856.7138975048946 242.90483580561755,856.7138975048946 205.7639817739835,742.4061024951054" fill="none" stroke="#A4D489" stroke-opacity=".28"/><polygon points="303,711.52 362.4220111381212,754.6926181914533 339.7248225632337,824.5473818085467 266.2751774367663,824.5473818085467 243.5779888618788,754.6926181914533" fill="none" stroke="#A4D489" stroke-opacity=".22"/><line x1="303" y1="774" x2="303" y2="632" stroke="#A4D489" stroke-opacity=".35" stroke-width="1.4"/><line x1="303" y1="774" x2="438.05002531391176" y2="730.1195867987575" stroke="#A4D489" stroke-opacity=".35" stroke-width="1.4"/><line x1="303" y1="774" x2="386.4655058255312" y2="888.8804132012425" stroke="#A4D489" stroke-opacity=".35" stroke-width="1.4"/><line x1="303" y1="774" x2="219.53449417446882" y2="888.8804132012425" stroke="#A4D489" stroke-opacity=".35" stroke-width="1.4"/><line x1="303" y1="774" x2="167.94997468608818" y2="730.1195867987575" stroke="#A4D489" stroke-opacity=".35" stroke-width="1.4"/><polygon points="303,685.96 381.3290146820688,748.5493603432793 363.09516419438245,856.7138975048946 234.55828522306444,868.2019388250188 213.8669832928182,745.03892728718" fill="#83C65B" fill-opacity=".38" stroke="#57A348" stroke-width="4"/><circle cx="303" cy="685.96" r="7" fill="#4F9B42"/><circle cx="381.3290146820688" cy="748.5493603432793" r="7" fill="#4F9B42"/><circle cx="363.09516419438245" cy="856.7138975048946" r="7" fill="#4F9B42"/><circle cx="234.55828522306444" cy="868.2019388250188" r="7" fill="#4F9B42"/><circle cx="213.8669832928182" cy="745.03892728718" r="7" fill="#4F9B42"/><text x="303" y="610" text-anchor="middle" font-size="24" font-weight="760" fill="#418D3C" font-family="'PingFang SC','Noto Sans CJK SC','Microsoft YaHei','Hiragino Sans GB',Arial,sans-serif">情绪状态 62</text><text x="303" y="642" text-anchor="middle" font-size="21" fill="#5D665F" font-family="'PingFang SC','Noto Sans CJK SC','Microsoft YaHei','Hiragino Sans GB',Arial,sans-serif">先稳定当下</text><text x="424" y="726" text-anchor="start" font-size="24" font-weight="760" fill="#418D3C" font-family="'PingFang SC','Noto Sans CJK SC','Microsoft YaHei','Hiragino Sans GB',Arial,sans-serif">压力管理 58</text><text x="424" y="758" text-anchor="start" font-size="21" fill="#5D665F" font-family="'PingFang SC','Noto Sans CJK SC','Microsoft YaHei','Hiragino Sans GB',Arial,sans-serif">降低消耗</text><text x="402" y="926" text-anchor="start" font-size="24" font-weight="760" fill="#418D3C" font-family="'PingFang SC','Noto Sans CJK SC','Microsoft YaHei','Hiragino Sans GB',Arial,sans-serif">社交支持 72</text><text x="402" y="958" text-anchor="start" font-size="21" fill="#5D665F" font-family="'PingFang SC','Noto Sans CJK SC','Microsoft YaHei','Hiragino Sans GB',Arial,sans-serif">连接可信的人</text><text x="204" y="926" text-anchor="end" font-size="24" font-weight="760" fill="#418D3C" font-family="'PingFang SC','Noto Sans CJK SC','Microsoft YaHei','Hiragino Sans GB',Arial,sans-serif">自我觉察 82</text><text x="204" y="958" text-anchor="end" font-size="21" fill="#5D665F" font-family="'PingFang SC','Noto Sans CJK SC','Microsoft YaHei','Hiragino Sans GB',Arial,sans-serif">你已经看见</text><text x="182" y="726" text-anchor="end" font-size="24" font-weight="760" fill="#418D3C" font-family="'PingFang SC','Noto Sans CJK SC','Microsoft YaHei','Hiragino Sans GB',Arial,sans-serif">生活节律 66</text><text x="182" y="758" text-anchor="end" font-size="21" fill="#5D665F" font-family="'PingFang SC','Noto Sans CJK SC','Microsoft YaHei','Hiragino Sans GB',Arial,sans-serif">优先睡眠</text></g>
<g filter="url(#shadow)"><rect x="568" y="546" width="323" height="496" rx="30" fill="#F4FAE8" fill-opacity=".80"/><text x="606" y="622" font-size="27" font-weight="720" fill="#5B635C" font-family="'PingFang SC','Noto Sans CJK SC','Microsoft YaHei','Hiragino Sans GB',Arial,sans-serif">你的心灵状态关键词</text><text x="600" y="698" font-size="40" font-weight="800" fill="#4A963C" font-family="'Kaiti SC','STKaiti','KaiTi','Noto Serif CJK SC','Songti SC',serif">安顿 · 支持 · 修复</text><path d="M598 728 C682 710 754 708 842 692" fill="none" stroke="#F1D164" stroke-width="6" stroke-linecap="round"/><text x="598" y="790" font-size="58" fill="#B5D995" fill-opacity=".76" font-family="Georgia,serif">“</text><text font-size="28" font-weight="620" fill="#435048" font-family="'PingFang SC','Noto Sans CJK SC','Microsoft YaHei','Hiragino Sans GB',Arial,sans-serif"><tspan x="604" y="838">先照顾自己，再寻找现实</tspan><tspan x="604" y="880">支持。</tspan></text><text font-size="22" font-weight="460" fill="#5D665F" font-family="'PingFang SC','Noto Sans CJK SC','Microsoft YaHei','Hiragino Sans GB',Arial,sans-serif"><tspan x="604" y="956">结果仅用于日常自我观察，请按</tspan><tspan x="604" y="988">现实支持优先。</tspan></text><g transform="translate(742 920) scale(.5)"><ellipse cx="45" cy="270" rx="172" ry="34" fill="#9CC96B" fill-opacity=".27"/><circle cx="52" cy="72" r="42" fill="#FFE6CD"/><path d="M18 76 C18 20 78 4 104 52 C76 40 56 54 48 84 C38 76 28 74 18 76 Z" fill="#7B4329"/><path d="M72 92 C98 118 108 170 94 226 C62 234 18 224 -8 202 C12 160 16 112 72 92 Z" fill="#fff"/><path d="M16 226 C-18 258 -52 280 -104 282" fill="none" stroke="#4F8D3D" stroke-width="30" stroke-linecap="round"/><path d="M76 226 C98 260 134 280 180 282" fill="none" stroke="#4F8D3D" stroke-width="30" stroke-linecap="round"/><path d="M44 160 C68 128 104 150 98 184 C94 212 62 230 44 244 C24 226 -2 206 4 176 C10 148 34 140 44 160 Z" fill="#F6A49B" fill-opacity=".88"/></g></g>
<path d="M50 1078 H326 L312 1126 H50 Z" fill="url(#green)"/><text x="70" y="1115" font-size="28" font-weight="760" fill="#fff" font-family="'PingFang SC','Noto Sans CJK SC','Microsoft YaHei','Hiragino Sans GB',Arial,sans-serif">· 给你的贴心建议 ·</text>
<g filter="url(#shadowSoft)"><rect x="66" y="1166" width="282" height="106" rx="22" fill="#F3F8E7" fill-opacity=".78"/><circle cx="104" cy="1218" r="28" fill="#9BD26B" fill-opacity=".82"/><text x="104" y="1228" text-anchor="middle" font-size="25" font-weight="800" fill="#fff" font-family="'PingFang SC','Noto Sans CJK SC','Microsoft YaHei','Hiragino Sans GB',Arial,sans-serif">息</text><text x="152" y="1205" font-size="23" font-weight="780" fill="#418D3C" font-family="'PingFang SC','Noto Sans CJK SC','Microsoft YaHei','Hiragino Sans GB',Arial,sans-serif">稳住今天节奏</text><text x="152" y="1240" font-size="20" fill="#5D665F" font-family="'PingFang SC','Noto Sans CJK SC','Microsoft YaHei','Hiragino Sans GB',Arial,sans-serif">把耗能的事拆成小一步</text></g><g filter="url(#shadowSoft)"><rect x="376" y="1166" width="282" height="106" rx="22" fill="#F3F8E7" fill-opacity=".78"/><circle cx="414" cy="1218" r="28" fill="#9BD26B" fill-opacity=".82"/><text x="414" y="1228" text-anchor="middle" font-size="25" font-weight="800" fill="#fff" font-family="'PingFang SC','Noto Sans CJK SC','Microsoft YaHei','Hiragino Sans GB',Arial,sans-serif">聊</text><text x="462" y="1205" font-size="23" font-weight="780" fill="#418D3C" font-family="'PingFang SC','Noto Sans CJK SC','Microsoft YaHei','Hiragino Sans GB',Arial,sans-serif">表达真实感受</text><text x="462" y="1240" font-size="20" fill="#5D665F" font-family="'PingFang SC','Noto Sans CJK SC','Microsoft YaHei','Hiragino Sans GB',Arial,sans-serif">找信任的人说说疲惫</text></g><g filter="url(#shadowSoft)"><rect x="66" y="1294" width="282" height="106" rx="22" fill="#F3F8E7" fill-opacity=".78"/><circle cx="104" cy="1346" r="28" fill="#9BD26B" fill-opacity=".82"/><text x="104" y="1356" text-anchor="middle" font-size="25" font-weight="800" fill="#fff" font-family="'PingFang SC','Noto Sans CJK SC','Microsoft YaHei','Hiragino Sans GB',Arial,sans-serif">松</text><text x="152" y="1333" font-size="23" font-weight="780" fill="#418D3C" font-family="'PingFang SC','Noto Sans CJK SC','Microsoft YaHei','Hiragino Sans GB',Arial,sans-serif">放松身体警觉</text><text x="152" y="1368" font-size="20" fill="#5D665F" font-family="'PingFang SC','Noto Sans CJK SC','Microsoft YaHei','Hiragino Sans GB',Arial,sans-serif">给自己十分钟呼吸散步</text></g><g filter="url(#shadowSoft)"><rect x="376" y="1294" width="282" height="106" rx="22" fill="#F3F8E7" fill-opacity=".78"/><circle cx="414" cy="1346" r="28" fill="#9BD26B" fill-opacity=".82"/><text x="414" y="1356" text-anchor="middle" font-size="25" font-weight="800" fill="#fff" font-family="'PingFang SC','Noto Sans CJK SC','Microsoft YaHei','Hiragino Sans GB',Arial,sans-serif">助</text><text x="462" y="1333" font-size="23" font-weight="780" fill="#418D3C" font-family="'PingFang SC','Noto Sans CJK SC','Microsoft YaHei','Hiragino Sans GB',Arial,sans-serif">优先现实支持</text><text x="462" y="1368" font-size="20" fill="#5D665F" font-family="'PingFang SC','Noto Sans CJK SC','Microsoft YaHei','Hiragino Sans GB',Arial,sans-serif">持续影响生活就寻求支持</text></g>
<g filter="url(#shadow)"><rect x="32" y="1400" width="877" height="248" rx="32" fill="#fff" fill-opacity=".78" stroke="#fff" stroke-width="2"/><rect x="76" y="1480" width="118" height="118" rx="28" fill="url(#green)"/><path d="M108 1522 C108 1502 130 1502 129 1524 C140 1500 166 1510 157 1538 C151 1558 136 1568 135 1572 C130 1564 108 1550 108 1522 Z" fill="none" stroke="#fff" stroke-width="8" stroke-linecap="round" stroke-linejoin="round"/><path d="M106 1568 C124 1554 150 1554 164 1568" fill="none" stroke="#fff" stroke-width="7" stroke-linecap="round"/><text x="220" y="1508" font-size="33" font-weight="780" fill="#418D3C" font-family="'PingFang SC','Noto Sans CJK SC','Microsoft YaHei','Hiragino Sans GB',Arial,sans-serif">心理健康评测</text><text x="220" y="1555" font-size="24" fill="#5D665F" font-family="'PingFang SC','Noto Sans CJK SC','Microsoft YaHei','Hiragino Sans GB',Arial,sans-serif">认识自己，拥抱更好的生活</text><rect x="220" y="1584" width="52" height="32" rx="12" fill="#CBE2B6" fill-opacity=".78"/><text x="246" y="1607" text-anchor="middle" font-size="18" fill="#5E8748" font-family="'PingFang SC','Noto Sans CJK SC','Microsoft YaHei','Hiragino Sans GB',Arial,sans-serif">专业</text><rect x="284" y="1584" width="52" height="32" rx="12" fill="#CBE2B6" fill-opacity=".78"/><text x="310" y="1607" text-anchor="middle" font-size="18" fill="#5E8748" font-family="'PingFang SC','Noto Sans CJK SC','Microsoft YaHei','Hiragino Sans GB',Arial,sans-serif">科学</text><rect x="348" y="1584" width="52" height="32" rx="12" fill="#CBE2B6" fill-opacity=".78"/><text x="374" y="1607" text-anchor="middle" font-size="18" fill="#5E8748" font-family="'PingFang SC','Noto Sans CJK SC','Microsoft YaHei','Hiragino Sans GB',Arial,sans-serif">隐私</text><rect x="412" y="1584" width="52" height="32" rx="12" fill="#CBE2B6" fill-opacity=".78"/><text x="438" y="1607" text-anchor="middle" font-size="18" fill="#5E8748" font-family="'PingFang SC','Noto Sans CJK SC','Microsoft YaHei','Hiragino Sans GB',Arial,sans-serif">可靠</text><text x="474" y="1514" font-size="25" fill="#5D665F" font-family="'PingFang SC','Noto Sans CJK SC','Microsoft YaHei','Hiragino Sans GB',Arial,sans-serif">长按识别二维码</text><text x="474" y="1564" font-size="25" font-weight="620" fill="#4E5D52" font-family="'PingFang SC','Noto Sans CJK SC','Microsoft YaHei','Hiragino Sans GB',Arial,sans-serif">开启心灵探索之旅</text><path d="M578 1602 C612 1638 666 1628 690 1584" fill="none" stroke="#91C85A" stroke-width="4" stroke-linecap="round"/><path d="M688 1584 L712 1596 L690 1610" fill="none" stroke="#91C85A" stroke-width="4" stroke-linecap="round" stroke-linejoin="round"/><g transform="translate(696 1434)"><rect width="194" height="194" rx="24" fill="#fff" filter="url(#shadowSoft)"/><rect x="20" y="20" width="22" height="22" rx="3" fill="#17221B"/><rect x="52" y="20" width="12" height="12" rx="3" fill="#17221B"/><rect x="84" y="20" width="20" height="20" rx="3" fill="#17221B"/><rect x="118" y="20" width="14" height="14" rx="3" fill="#17221B"/><rect x="154" y="20" width="22" height="22" rx="3" fill="#17221B"/><rect x="22" y="54" width="14" height="14" rx="3" fill="#17221B"/><rect x="58" y="54" width="22" height="22" rx="3" fill="#17221B"/><rect x="98" y="54" width="12" height="12" rx="3" fill="#17221B"/><rect x="130" y="54" width="20" height="20" rx="3" fill="#17221B"/><rect x="162" y="54" width="14" height="14" rx="3" fill="#17221B"/><rect x="24" y="88" width="24" height="24" rx="3" fill="#17221B"/><rect x="64" y="92" width="14" height="14" rx="3" fill="#17221B"/><rect x="94" y="88" width="20" height="20" rx="3" fill="#17221B"/><rect x="132" y="92" width="14" height="14" rx="3" fill="#17221B"/><rect x="162" y="88" width="22" height="22" rx="3" fill="#17221B"/><rect x="24" y="128" width="16" height="16" rx="3" fill="#17221B"/><rect x="54" y="122" width="24" height="24" rx="3" fill="#17221B"/><rect x="92" y="128" width="16" height="16" rx="3" fill="#17221B"/><rect x="126" y="122" width="24" height="24" rx="3" fill="#17221B"/><rect x="162" y="128" width="18" height="18" rx="3" fill="#17221B"/><rect x="24" y="160" width="22" height="22" rx="3" fill="#17221B"/><rect x="62" y="164" width="12" height="12" rx="3" fill="#17221B"/><rect x="94" y="158" width="22" height="22" rx="3" fill="#17221B"/><rect x="132" y="164" width="14" height="14" rx="3" fill="#17221B"/><rect x="162" y="160" width="20" height="20" rx="3" fill="#17221B"/><rect x="72" y="72" width="50" height="50" rx="13" fill="url(#green)"/><path d="M84 98 C79 84 98 80 98 96 C106 80 124 86 116 104 C111 115 99 121 98 122 C95 117 88 110 84 98 Z" fill="none" stroke="#fff" stroke-width="5" stroke-linecap="round" stroke-linejoin="round"/></g></g>
</svg>