<?xml version="1.0" encoding="UTF-8"?>
<svg xmlns="http://www.w3.org/2000/svg" width="941" height="1672" viewBox="0 0 941 1672">
  <defs>
    <linearGradient id="bg" x1="0" x2="1" y1="0" y2="1"><stop offset="0" stop-color="#FFF8E8"/><stop offset="0.38" stop-color="#FBFDF2"/><stop offset="1" stop-color="#D7EFA9"/></linearGradient>
    <linearGradient id="green" x1="0" x2="1" y1="0" y2="1"><stop offset="0" stop-color="#93D36B"/><stop offset="1" stop-color="#4B983D"/></linearGradient>
    <filter id="shadow" x="-20%" y="-20%" width="140%" height="150%"><feDropShadow dx="0" dy="18" stdDeviation="24" flood-color="#6D9F50" flood-opacity="0.14"/></filter>
    <filter id="shadowSoft" x="-25%" y="-25%" width="150%" height="150%"><feDropShadow dx="0" dy="10" stdDeviation="14" flood-color="#6D9F50" flood-opacity="0.13"/></filter>
  </defs>

  <rect width="941" height="1672" fill="url(#bg)"/>
  <circle cx="-22" cy="86" r="172" fill="#fff" fill-opacity="0.5"/>
  <circle cx="820" cy="455" r="176" fill="#DFF2C7" fill-opacity="0.58"/>
  <circle cx="875" cy="1460" r="238" fill="#A7D46C" fill-opacity="0.24"/>
  <path d="M0 1488 C150 1418 306 1460 470 1520 C640 1584 790 1574 941 1490 L941 1672 L0 1672 Z" fill="#CBEA91" fill-opacity="0.42"/>

  <path d="M636 20 C728 58 812 92 944 164" fill="none" stroke="#6D6936" stroke-width="4" stroke-opacity="0.36"/>
  <ellipse cx="638" cy="15" rx="48" ry="22" fill="#BBD976" fill-opacity="0.82" transform="rotate(-24 638 15)"/><ellipse cx="688" cy="22" rx="52" ry="24" fill="#97CB5C" fill-opacity="0.82" transform="rotate(18 688 22)"/><ellipse cx="742" cy="20" rx="62" ry="27" fill="#6EAF43" fill-opacity="0.82" transform="rotate(-15 742 20)"/><ellipse cx="804" cy="44" rx="66" ry="29" fill="#5A9C39" fill-opacity="0.82" transform="rotate(20 804 44)"/><ellipse cx="870" cy="82" rx="64" ry="28" fill="#7EBD4E" fill-opacity="0.82" transform="rotate(-18 870 82)"/><ellipse cx="920" cy="128" rx="58" ry="25" fill="#649B3F" fill-opacity="0.82" transform="rotate(18 920 128)"/><ellipse cx="704" cy="86" rx="52" ry="23" fill="#A4CF67" fill-opacity="0.82" transform="rotate(-18 704 86)"/><ellipse cx="766" cy="92" rx="58" ry="24" fill="#79B94C" fill-opacity="0.82" transform="rotate(14 766 92)"/><ellipse cx="832" cy="132" rx="62" ry="27" fill="#4F8F38" fill-opacity="0.82" transform="rotate(-20 832 132)"/><ellipse cx="892" cy="170" rx="58" ry="25" fill="#7DBA4C" fill-opacity="0.82" transform="rotate(18 892 170)"/>

  <g transform="translate(66 66)"><rect width="46" height="46" rx="11" fill="url(#green)"/><path d="M14 18 C14 9 25 9 23 19 C29 7 40 13 35 25 C32 33 23 39 23 40 C22 38 14 31 14 18 Z" fill="none" stroke="#fff" stroke-width="4" stroke-linecap="round" stroke-linejoin="round"/><path d="M12 34 C21 27 31 27 38 34" fill="none" stroke="#fff" stroke-width="3.5" stroke-linecap="round"/></g>
  <text x="130" y="97" font-size="31" font-weight="760" fill="#418D3C" font-family="'PingFang SC','Noto Sans CJK SC','Microsoft YaHei','Hiragino Sans GB',Arial,sans-serif">心理健康评测</text>

  <text x="66" y="206" font-size="78" font-weight="780" fill="#4A963C" font-family="'Kaiti SC','STKaiti','KaiTi','Noto Serif CJK SC','Songti SC',serif">了解自己</text>
  <text x="66" y="316" font-size="78" font-weight="780" fill="#4A963C" font-family="'Kaiti SC','STKaiti','KaiTi','Noto Serif CJK SC','Songti SC',serif">关爱心灵</text>
  <path d="M462 274 C466 222 520 218 526 262 C560 232 594 270 550 308 C522 332 492 328 462 274 Z" fill="none" stroke="#F1D164" stroke-width="8" stroke-linecap="round" stroke-linejoin="round"/>
  <text x="66" y="406" font-size="29" font-weight="520" fill="#5C675E" font-family="'PingFang SC','Noto Sans CJK SC','Microsoft YaHei','Hiragino Sans GB',Arial,sans-serif">看见自己的消耗，是恢复的第一步</text>

  <g filter="url(#shadowSoft)"><circle cx="626" cy="232" r="58" fill="#fff" fill-opacity="0.78"/><circle cx="626" cy="231" r="45" fill="#F8D1B4" fill-opacity="0.78"/><path d="M588 242 C604 188 666 188 680 236 C660 218 636 216 614 232 C606 238 596 242 588 242 Z" fill="#75452E" fill-opacity="0.86"/><circle cx="626" cy="238" r="24" fill="#FFE5CD"/><path d="M612 250 C626 261 646 256 654 244" fill="none" stroke="#D77D62" stroke-width="4" stroke-linecap="round"/></g>
  <text x="710" y="224" font-size="28" font-weight="760" fill="#2F7A31" font-family="'PingFang SC','Noto Sans CJK SC','Microsoft YaHei','Hiragino Sans GB',Arial,sans-serif">@ 心灵探索者</text>
  <text x="710" y="280" font-size="26" fill="#9A9F9B" font-family="'PingFang SC','Noto Sans CJK SC','Microsoft YaHei','Hiragino Sans GB',Arial,sans-serif">评测完成于</text>
  <text x="710" y="328" font-size="30" font-weight="620" fill="#9A9F9B" font-family="'PingFang SC','Noto Sans CJK SC','Microsoft YaHei','Hiragino Sans GB',Arial,sans-serif">2026.05.08</text>

  <g filter="url(#shadow)"><rect x="568" y="330" width="323" height="184" rx="28" fill="#fff" fill-opacity="0.74"/><text x="602" y="407" font-size="28" fill="#7C827E" font-family="'PingFang SC','Noto Sans CJK SC','Microsoft YaHei','Hiragino Sans GB',Arial,sans-serif">总分</text><text x="656" y="424" font-size="94" font-weight="820" fill="#76BD50" font-family="'PingFang SC','Noto Sans CJK SC','Microsoft YaHei','Hiragino Sans GB',Arial,sans-serif">64</text><text x="774" y="424" font-size="30" fill="#7C827E" font-family="'PingFang SC','Noto Sans CJK SC','Microsoft YaHei','Hiragino Sans GB',Arial,sans-serif">/100</text><rect x="650" y="450" width="164" height="50" rx="25" fill="url(#green)"/><text x="732" y="484" text-anchor="middle" font-size="25" font-weight="760" fill="#fff" font-family="'PingFang SC','Noto Sans CJK SC','Microsoft YaHei','Hiragino Sans GB',Arial,sans-serif">建议支持</text></g>

  <g filter="url(#shadow)"><rect x="50" y="492" width="506" height="538" rx="28" fill="#fff" fill-opacity="0.64"/><path d="M50 470 H334 L318 518 H50 Z" fill="url(#green)"/><text x="70" y="507" font-size="28" font-weight="760" fill="#fff" font-family="'PingFang SC','Noto Sans CJK SC','Microsoft YaHei','Hiragino Sans GB',Arial,sans-serif">· 你的心理健康维度 ·</text><polygon points="304,612 450.4627035094536,718.4113828662581 394.51892885304085,890.5886171337419 213.48107114695915,890.5886171337419 157.53729649054634,718.4113828662581" fill="#95CD66" fill-opacity="0.06" stroke="#A4D489" stroke-opacity="0.50"/><polygon points="304,655.12 409.4531465268066,731.7361956637059 369.1736287741894,855.7038043362942 238.8263712258106,855.7038043362942 198.54685347319338,731.7361956637059" fill="none" stroke="#A4D489" stroke-opacity="0.28"/><polygon points="304,698.24 368.4435895441596,745.0610084611536 343.828328695338,820.8189915388465 264.171671304662,820.8189915388465 239.5564104558404,745.0610084611536" fill="none" stroke="#A4D489" stroke-opacity="0.22"/><line x1="304" y1="766" x2="304" y2="612" stroke="#A4D489" stroke-opacity="0.36" stroke-width="1.4"/><line x1="304" y1="766" x2="450.4627035094536" y2="718.4113828662581" stroke="#A4D489" stroke-opacity="0.36" stroke-width="1.4"/><line x1="304" y1="766" x2="394.51892885304085" y2="890.5886171337419" stroke="#A4D489" stroke-opacity="0.36" stroke-width="1.4"/><line x1="304" y1="766" x2="213.48107114695915" y2="890.5886171337419" stroke="#A4D489" stroke-opacity="0.36" stroke-width="1.4"/><line x1="304" y1="766" x2="157.53729649054634" y2="718.4113828662581" stroke="#A4D489" stroke-opacity="0.36" stroke-width="1.4"/><polygon points="304,670.52 388.9483680354831,738.3986020624297 369.1736287741894,855.7038043362942 229.7744783405065,868.1626660496684 207.33461568376057,734.5915126917304" fill="#83C65B" fill-opacity="0.38" stroke="#57A348" stroke-width="4"/><circle cx="304" cy="670.52" r="7" fill="#4F9B42"/><circle cx="388.9483680354831" cy="738.3986020624297" r="7" fill="#4F9B42"/><circle cx="369.1736287741894" cy="855.7038043362942" r="7" fill="#4F9B42"/><circle cx="229.7744783405065" cy="868.1626660496684" r="7" fill="#4F9B42"/><circle cx="207.33461568376057" cy="734.5915126917304" r="7" fill="#4F9B42"/><g><circle cx="246" cy="592" r="27" fill="#8BCB63" fill-opacity="0.82"/><text x="246" y="602" text-anchor="middle" font-size="25" font-weight="800" fill="#fff" font-family="'PingFang SC','Noto Sans CJK SC','Microsoft YaHei','Hiragino Sans GB',Arial,sans-serif">心</text><text x="304" y="602" text-anchor="middle" font-size="24" font-weight="760" fill="#418D3C" font-family="'PingFang SC','Noto Sans CJK SC','Microsoft YaHei','Hiragino Sans GB',Arial,sans-serif">情绪状态 62</text><text x="304" y="634" text-anchor="middle" font-size="21" fill="#5D665F" font-family="'PingFang SC','Noto Sans CJK SC','Microsoft YaHei','Hiragino Sans GB',Arial,sans-serif">先稳定当下</text></g><g><circle cx="466" cy="708" r="27" fill="#8BCB63" fill-opacity="0.82"/><text x="466" y="718" text-anchor="middle" font-size="25" font-weight="800" fill="#fff" font-family="'PingFang SC','Noto Sans CJK SC','Microsoft YaHei','Hiragino Sans GB',Arial,sans-serif">压</text><text x="432" y="718" text-anchor="start" font-size="24" font-weight="760" fill="#418D3C" font-family="'PingFang SC','Noto Sans CJK SC','Microsoft YaHei','Hiragino Sans GB',Arial,sans-serif">压力管理 58</text><text x="432" y="750" text-anchor="start" font-size="21" fill="#5D665F" font-family="'PingFang SC','Noto Sans CJK SC','Microsoft YaHei','Hiragino Sans GB',Arial,sans-serif">降低消耗</text></g><g><circle cx="436" cy="926" r="27" fill="#8BCB63" fill-opacity="0.82"/><text x="436" y="936" text-anchor="middle" font-size="25" font-weight="800" fill="#fff" font-family="'PingFang SC','Noto Sans CJK SC','Microsoft YaHei','Hiragino Sans GB',Arial,sans-serif">伴</text><text x="402" y="936" text-anchor="start" font-size="24" font-weight="760" fill="#418D3C" font-family="'PingFang SC','Noto Sans CJK SC','Microsoft YaHei','Hiragino Sans GB',Arial,sans-serif">社交支持 72</text><text x="402" y="968" text-anchor="start" font-size="21" fill="#5D665F" font-family="'PingFang SC','Noto Sans CJK SC','Microsoft YaHei','Hiragino Sans GB',Arial,sans-serif">连接可信的人</text></g><g><circle cx="174" cy="926" r="27" fill="#8BCB63" fill-opacity="0.82"/><text x="174" y="936" text-anchor="middle" font-size="25" font-weight="800" fill="#fff" font-family="'PingFang SC','Noto Sans CJK SC','Microsoft YaHei','Hiragino Sans GB',Arial,sans-serif">我</text><text x="210" y="936" text-anchor="end" font-size="24" font-weight="760" fill="#418D3C" font-family="'PingFang SC','Noto Sans CJK SC','Microsoft YaHei','Hiragino Sans GB',Arial,sans-serif">自我觉察 82</text><text x="210" y="968" text-anchor="end" font-size="21" fill="#5D665F" font-family="'PingFang SC','Noto Sans CJK SC','Microsoft YaHei','Hiragino Sans GB',Arial,sans-serif">你已经看见</text></g><g><circle cx="140" cy="708" r="27" fill="#8BCB63" fill-opacity="0.82"/><text x="140" y="718" text-anchor="middle" font-size="25" font-weight="800" fill="#fff" font-family="'PingFang SC','Noto Sans CJK SC','Microsoft YaHei','Hiragino Sans GB',Arial,sans-serif">眠</text><text x="176" y="718" text-anchor="end" font-size="24" font-weight="760" fill="#418D3C" font-family="'PingFang SC','Noto Sans CJK SC','Microsoft YaHei','Hiragino Sans GB',Arial,sans-serif">生活节律 66</text><text x="176" y="750" text-anchor="end" font-size="21" fill="#5D665F" font-family="'PingFang SC','Noto Sans CJK SC','Microsoft YaHei','Hiragino Sans GB',Arial,sans-serif">优先睡眠</text></g></g>

  <g filter="url(#shadow)"><rect x="568" y="546" width="323" height="496" rx="30" fill="#F4FAE8" fill-opacity="0.78"/><text x="606" y="622" font-size="27" font-weight="720" fill="#5B635C" font-family="'PingFang SC','Noto Sans CJK SC','Microsoft YaHei','Hiragino Sans GB',Arial,sans-serif">你的心灵状态关键词</text><text x="600" y="698" font-size="41" font-weight="800" fill="#4A963C" font-family="'Kaiti SC','STKaiti','KaiTi','Noto Serif CJK SC','Songti SC',serif">安顿 · 支持 · 修复</text><path d="M598 728 C682 710 754 708 842 692" fill="none" stroke="#F1D164" stroke-width="6" stroke-linecap="round"/><text x="598" y="790" font-size="58" fill="#B5D995" fill-opacity="0.76" font-family="Georgia,serif">“</text><text font-size="28" font-weight="590" fill="#435048" font-family="'PingFang SC','Noto Sans CJK SC','Microsoft YaHei','Hiragino Sans GB',Arial,sans-serif"><tspan x="604" y="835">这份近期紧张感自检提醒我</tspan><tspan x="604" y="877">：先把自己照顾好，再寻找</tspan><tspan x="604" y="919">现实支持。</tspan></text><text font-size="23" fill="#5D665F" fill-opacity="0.88" font-family="'PingFang SC','Noto Sans CJK SC','Microsoft YaHei','Hiragino Sans GB',Arial,sans-serif"><tspan x="604" y="970">结果仅用于日常自我观察，请</tspan><tspan x="604" y="1004">按现实支持优先。</tspan></text><g transform="translate(682 886) scale(.82)"><ellipse cx="45" cy="270" rx="172" ry="34" fill="#9CC96B" fill-opacity="0.27"/><path d="M-96 266 C-44 236 2 232 62 250 C118 266 166 252 214 224" fill="none" stroke="#72AD42" stroke-width="9" stroke-opacity="0.42" stroke-linecap="round"/><circle cx="52" cy="72" r="42" fill="#FFE6CD"/><path d="M18 76 C18 20 78 4 104 52 C76 40 56 54 48 84 C38 76 28 74 18 76 Z" fill="#7B4329"/><path d="M72 92 C98 118 108 170 94 226 C62 234 18 224 -8 202 C12 160 16 112 72 92 Z" fill="#fff"/><path d="M20 148 C-12 174 -28 214 -16 246" fill="none" stroke="#fff" stroke-width="32" stroke-linecap="round"/><path d="M92 152 C126 180 156 210 184 232" fill="none" stroke="#fff" stroke-width="30" stroke-linecap="round"/><path d="M16 226 C-18 258 -52 280 -104 282" fill="none" stroke="#4F8D3D" stroke-width="30" stroke-linecap="round"/><path d="M76 226 C98 260 134 280 180 282" fill="none" stroke="#4F8D3D" stroke-width="30" stroke-linecap="round"/><path d="M44 160 C68 128 104 150 98 184 C94 212 62 230 44 244 C24 226 -2 206 4 176 C10 148 34 140 44 160 Z" fill="#F6A49B" fill-opacity="0.88"/><path d="M34 74 C42 86 60 88 72 76" fill="none" stroke="#D77D62" stroke-width="4" stroke-linecap="round"/></g></g>

  <path d="M50 1078 H326 L312 1126 H50 Z" fill="url(#green)"/><text x="70" y="1115" font-size="28" font-weight="760" fill="#fff" font-family="'PingFang SC','Noto Sans CJK SC','Microsoft YaHei','Hiragino Sans GB',Arial,sans-serif">· 给你的贴心建议 ·</text>
  <g filter="url(#shadowSoft)"><rect x="66" y="1166" width="272" height="104" rx="22" fill="#F3F8E7" fill-opacity="0.78"/><circle cx="104" cy="1218" r="27" fill="#9BD26B" fill-opacity="0.82"/><text x="104" y="1228" text-anchor="middle" font-size="25" font-weight="800" fill="#fff" font-family="'PingFang SC','Noto Sans CJK SC','Microsoft YaHei','Hiragino Sans GB',Arial,sans-serif">息</text><text x="152" y="1202" font-size="23" font-weight="780" fill="#418D3C" font-family="'PingFang SC','Noto Sans CJK SC','Microsoft YaHei','Hiragino Sans GB',Arial,sans-serif">稳住今天节奏</text><text x="152" y="1235" font-size="20" fill="#5D665F" font-family="'PingFang SC','Noto Sans CJK SC','Microsoft YaHei','Hiragino Sans GB',Arial,sans-serif">把最耗能的一件事拆成小一</text><text x="152" y="1262" font-size="20" fill="#5D665F" font-family="'PingFang SC','Noto Sans CJK SC','Microsoft YaHei','Hiragino Sans GB',Arial,sans-serif">步</text></g><g filter="url(#shadowSoft)"><rect x="376" y="1166" width="272" height="104" rx="22" fill="#F3F8E7" fill-opacity="0.78"/><circle cx="414" cy="1218" r="27" fill="#9BD26B" fill-opacity="0.82"/><text x="414" y="1228" text-anchor="middle" font-size="25" font-weight="800" fill="#fff" font-family="'PingFang SC','Noto Sans CJK SC','Microsoft YaHei','Hiragino Sans GB',Arial,sans-serif">聊</text><text x="462" y="1202" font-size="23" font-weight="780" fill="#418D3C" font-family="'PingFang SC','Noto Sans CJK SC','Microsoft YaHei','Hiragino Sans GB',Arial,sans-serif">表达真实感受</text><text x="462" y="1235" font-size="20" fill="#5D665F" font-family="'PingFang SC','Noto Sans CJK SC','Microsoft YaHei','Hiragino Sans GB',Arial,sans-serif">找一个信任的人说说最近的</text><text x="462" y="1262" font-size="20" fill="#5D665F" font-family="'PingFang SC','Noto Sans CJK SC','Microsoft YaHei','Hiragino Sans GB',Arial,sans-serif">疲惫</text></g><g filter="url(#shadowSoft)"><rect x="66" y="1294" width="272" height="104" rx="22" fill="#F3F8E7" fill-opacity="0.78"/><circle cx="104" cy="1346" r="27" fill="#9BD26B" fill-opacity="0.82"/><text x="104" y="1356" text-anchor="middle" font-size="25" font-weight="800" fill="#fff" font-family="'PingFang SC','Noto Sans CJK SC','Microsoft YaHei','Hiragino Sans GB',Arial,sans-serif">松</text><text x="152" y="1330" font-size="23" font-weight="780" fill="#418D3C" font-family="'PingFang SC','Noto Sans CJK SC','Microsoft YaHei','Hiragino Sans GB',Arial,sans-serif">放松身体警觉</text><text x="152" y="1363" font-size="20" fill="#5D665F" font-family="'PingFang SC','Noto Sans CJK SC','Microsoft YaHei','Hiragino Sans GB',Arial,sans-serif">给自己 10 分钟呼吸或散</text><text x="152" y="1390" font-size="20" fill="#5D665F" font-family="'PingFang SC','Noto Sans CJK SC','Microsoft YaHei','Hiragino Sans GB',Arial,sans-serif">步</text></g><g filter="url(#shadowSoft)"><rect x="376" y="1294" width="272" height="104" rx="22" fill="#F3F8E7" fill-opacity="0.78"/><circle cx="414" cy="1346" r="27" fill="#9BD26B" fill-opacity="0.82"/><text x="414" y="1356" text-anchor="middle" font-size="25" font-weight="800" fill="#fff" font-family="'PingFang SC','Noto Sans CJK SC','Microsoft YaHei','Hiragino Sans GB',Arial,sans-serif">助</text><text x="462" y="1330" font-size="23" font-weight="780" fill="#418D3C" font-family="'PingFang SC','Noto Sans CJK SC','Microsoft YaHei','Hiragino Sans GB',Arial,sans-serif">优先现实支持</text><text x="462" y="1363" font-size="20" fill="#5D665F" font-family="'PingFang SC','Noto Sans CJK SC','Microsoft YaHei','Hiragino Sans GB',Arial,sans-serif">若持续影响生活，联系专业</text><text x="462" y="1390" font-size="20" fill="#5D665F" font-family="'PingFang SC','Noto Sans CJK SC','Microsoft YaHei','Hiragino Sans GB',Arial,sans-serif">支持</text></g>

  <g filter="url(#shadow)"><rect x="32" y="1400" width="877" height="248" rx="32" fill="#fff" fill-opacity="0.76" stroke="#fff" stroke-width="2"/><rect x="76" y="1480" width="118" height="118" rx="28" fill="url(#green)"/><path d="M108 1522 C108 1502 130 1502 129 1524 C140 1500 166 1510 157 1538 C151 1558 136 1568 135 1572 C130 1564 108 1550 108 1522 Z" fill="none" stroke="#fff" stroke-width="8" stroke-linecap="round" stroke-linejoin="round"/><path d="M106 1568 C124 1554 150 1554 164 1568" fill="none" stroke="#fff" stroke-width="7" stroke-linecap="round"/><text x="220" y="1508" font-size="33" font-weight="780" fill="#418D3C" font-family="'PingFang SC','Noto Sans CJK SC','Microsoft YaHei','Hiragino Sans GB',Arial,sans-serif">心理健康评测</text><text x="220" y="1555" font-size="24" fill="#5D665F" font-family="'PingFang SC','Noto Sans CJK SC','Microsoft YaHei','Hiragino Sans GB',Arial,sans-serif">认识自己，拥抱更好的生活</text><rect x="220" y="1584" width="50" height="32" rx="12" fill="#C9DFB4" fill-opacity="0.78"/><text x="245" y="1607" text-anchor="middle" font-size="18" fill="#628B4B" font-family="'PingFang SC','Noto Sans CJK SC','Microsoft YaHei','Hiragino Sans GB',Arial,sans-serif">专业</text><rect x="282" y="1584" width="50" height="32" rx="12" fill="#C9DFB4" fill-opacity="0.78"/><text x="307" y="1607" text-anchor="middle" font-size="18" fill="#628B4B" font-family="'PingFang SC','Noto Sans CJK SC','Microsoft YaHei','Hiragino Sans GB',Arial,sans-serif">科学</text><rect x="344" y="1584" width="50" height="32" rx="12" fill="#C9DFB4" fill-opacity="0.78"/><text x="369" y="1607" text-anchor="middle" font-size="18" fill="#628B4B" font-family="'PingFang SC','Noto Sans CJK SC','Microsoft YaHei','Hiragino Sans GB',Arial,sans-serif">隐私</text><rect x="406" y="1584" width="50" height="32" rx="12" fill="#C9DFB4" fill-opacity="0.78"/><text x="431" y="1607" text-anchor="middle" font-size="18" fill="#628B4B" font-family="'PingFang SC','Noto Sans CJK SC','Microsoft YaHei','Hiragino Sans GB',Arial,sans-serif">可靠</text><text x="478" y="1514" font-size="25" fill="#5D665F" font-family="'PingFang SC','Noto Sans CJK SC','Microsoft YaHei','Hiragino Sans GB',Arial,sans-serif">长按识别二维码</text><text x="478" y="1568" font-size="28" font-weight="600" fill="#4E5D52" font-family="'PingFang SC','Noto Sans CJK SC','Microsoft YaHei','Hiragino Sans GB',Arial,sans-serif">开启你的心灵探索之旅</text><path d="M576 1600 C612 1642 670 1628 692 1582" fill="none" stroke="#91C85A" stroke-width="4" stroke-linecap="round"/><path d="M690 1582 L716 1594 L692 1610" fill="none" stroke="#91C85A" stroke-width="4" stroke-linecap="round" stroke-linejoin="round"/><g transform="translate(697 1454)">
  <rect x="0" y="0" width="198" height="198" rx="22" fill="#FFFFFF" filter="url(#shadowSoft)"/>
  <rect x="14" y="14" width="170" height="170" rx="10" fill="#FFFFFF"/>
  <rect x="30" y="30" width="20" height="20" rx="3" fill="#18221C"/><rect x="58" y="30" width="12" height="12" rx="3" fill="#18221C"/><rect x="90" y="30" width="18" height="18" rx="3" fill="#18221C"/><rect x="122" y="30" width="14" height="14" rx="3" fill="#18221C"/><rect x="158" y="30" width="22" height="22" rx="3" fill="#18221C"/><rect x="30" y="62" width="14" height="14" rx="3" fill="#18221C"/><rect x="66" y="62" width="22" height="22" rx="3" fill="#18221C"/><rect x="106" y="62" width="12" height="12" rx="3" fill="#18221C"/><rect x="138" y="62" width="20" height="20" rx="3" fill="#18221C"/><rect x="172" y="62" width="12" height="12" rx="3" fill="#18221C"/><rect x="32" y="96" width="24" height="24" rx="3" fill="#18221C"/><rect x="72" y="98" width="14" height="14" rx="3" fill="#18221C"/><rect x="102" y="94" width="20" height="20" rx="3" fill="#18221C"/><rect x="142" y="98" width="14" height="14" rx="3" fill="#18221C"/><rect x="172" y="96" width="22" height="22" rx="3" fill="#18221C"/><rect x="32" y="136" width="16" height="16" rx="3" fill="#18221C"/><rect x="62" y="130" width="24" height="24" rx="3" fill="#18221C"/><rect x="100" y="136" width="16" height="16" rx="3" fill="#18221C"/><rect x="132" y="130" width="24" height="24" rx="3" fill="#18221C"/><rect x="168" y="136" width="18" height="18" rx="3" fill="#18221C"/><rect x="32" y="168" width="22" height="22" rx="3" fill="#18221C"/><rect x="70" y="172" width="12" height="12" rx="3" fill="#18221C"/><rect x="102" y="166" width="22" height="22" rx="3" fill="#18221C"/><rect x="140" y="172" width="14" height="14" rx="3" fill="#18221C"/><rect x="172" y="168" width="20" height="20" rx="3" fill="#18221C"/>
  <rect x="74" y="74" width="50" height="50" rx="13" fill="url(#green)"/>
  <path d="M86 99 C80 84 98 79 100 96 C106 80 124 86 116 104 C112 114 100 120 99 121 C97 118 90 111 86 99 Z" fill="none" stroke="#fff" stroke-width="5" stroke-linecap="round" stroke-linejoin="round"/>
</g></g>
</svg>